<svg width="512" height="512" xmlns="http://www.w3.org/2000/svg">

 <g>
  <title>background</title>
  <rect fill="none" id="canvas_background" height="402" width="582" y="-1" x="-1"/>
 </g>
 <g>
  <title>Layer 1</title>
  <g id="svg_1">
   <g id="svg_2">
    <path fill="#ffffff" id="svg_3" d="m490.24,113.92c-13.888,-24.704 -28.96,-29.248 -59.648,-30.976c-30.656,-2.08 -107.744,-2.944 -174.528,-2.944c-66.912,0 -144.032,0.864 -174.656,2.912c-30.624,1.76 -45.728,6.272 -59.744,31.008c-14.304,24.672 -21.664,67.168 -21.664,141.984c0,0.064 0,0.096 0,0.096c0,0.064 0,0.096 0,0.096l0,0.064c0,74.496 7.36,117.312 21.664,141.728c14.016,24.704 29.088,29.184 59.712,31.264c30.656,1.792 107.776,2.848 174.688,2.848c66.784,0 143.872,-1.056 174.56,-2.816c30.688,-2.08 45.76,-6.56 59.648,-31.264c14.432,-24.416 21.728,-67.232 21.728,-141.728c0,0 0,-0.096 0,-0.16c0,0 0,-0.064 0,-0.096c0,-74.848 -7.296,-117.344 -21.76,-142.016zm-298.24,238.08l0,-192l160,96l-160,96z"/>
   </g>
  </g>
  <g id="svg_4"/>
  <g id="svg_5"/>
  <g id="svg_6"/>
  <g id="svg_7"/>
  <g id="svg_8"/>
  <g id="svg_9"/>
  <g id="svg_10"/>
  <g id="svg_11"/>
  <g id="svg_12"/>
  <g id="svg_13"/>
  <g id="svg_14"/>
  <g id="svg_15"/>
  <g id="svg_16"/>
  <g id="svg_17"/>
  <g id="svg_18"/>
 </g>
</svg>